<svg xmlns="http://www.w3.org/2000/svg" width="482" height="335" fill="none"><path fill="#000" d="M307.644 168.776a.268.268 0 0 0-.119-.428.27.27 0 0 0-.171-.002 255 255 0 0 0-15.88 5.14c-36.1 12.97-72.49 29.04-108 46.22a.32.32 0 0 0-.176.232.34.34 0 0 0 .076.288c10.67 12.06 13.6 26.65 6.44 41.56-6.22 12.96-17.71 23.38-29.5 31.25q-16.95 11.31-37.31 19.72c-29.41 12.13-60.98 20.44-92.62 21.96-8.43.4-25.47-.96-24.87-13.34.33-6.78 7.83-13.9 13.01-18.14q9.12-7.46 21.48-15.49 15.28-9.93 26.43-16.32 51.48-29.51 103.12-53.98a.64.64 0 0 0 .11-1.09c-8.66-6.55-19.5-12.72-29.84-17.15q-22.65-9.69-43.33-16.17-27.819-8.7-42.75-13.77c-15.29-5.19-31.53-11.9-43.6-22.88-9.39-8.54-12.89-21.97-7.82-34.01q3.02-7.21 6.28-11.56c11.16-14.91 26.16-27.26 41.78-37.96 28.64-19.63 60.35-35.06 93.13-46.84q32.391-11.64 64.11-15.13c14.87-1.64 37.05-2.18 48.25 9.23 9.37 9.54 7.43 24.23 1.48 35.09-8.82 16.12-23.48 29.57-38.83 39.63a3.67 3.67 0 0 1-2.509.568 3.66 3.66 0 0 1-2.261-1.218l-.14-.17a2.943 2.943 0 0 1 .47-4.31q5.92-4.34 13.77-11.6 12.2-11.27 20.08-24.91c3.88-6.71 7.72-17.85 3.28-24.97-6.99-11.23-39.44-8.18-50.38-6.4-41.94 6.83-83.29 23.06-120.27 44.25q-22.85 13.08-37.08 24.42c-13.27 10.56-45.46 36.98-30.4 56.45q5.02 6.5 13.01 10.97 13.86 7.76 30.11 13.14c33.65 11.14 62.69 19.37 91.11 33.15a143.5 143.5 0 0 1 29.63 19.15.745.745 0 0 0 .8.09 1410 1410 0 0 1 77.1-34.38c21.79-8.94 45.37-17.88 68.97-24.12a1.52 1.52 0 0 0 1-.86c3.1-7.17 9.26-7.98 16.12-4.94q11.79 5.22 16.1 17.98c1.42 4.21 1.36 9.74 1.2 14.39a.69.69 0 0 0 .56.69q11.91 2.09 24.59 1.74 16.25-.46 31.25-2.62 27.73-4.01 62.01-12.11a4.1 4.1 0 0 1 2.879.381 4.08 4.08 0 0 1 1.901 2.189l.05.14a3.28 3.28 0 0 1-2.23 4.3q-16.38 4.42-36.43 8.25c-23.7 4.53-44.91 7.8-66.93 7.23q-10.14-.27-19.05-2.14a.76.76 0 0 0-.86.47c-5.21 13.74-14.92 24.72-26.71 33.58-8.44 6.34-24.67 14.55-35.18 8.9-12.71-6.84-10.23-22.39-5.77-34.02q5.53-14.42 16.83-26.87 1.85-2.04 2.5-2.85m30.41-10.78c-.34.93-.18 2.34-.7 3.36q-.66 1.32-2.3 2.08a2.02 2.02 0 0 0-1.07 2.39c1.9 6.46 9.5 11.45 15.46 13.74a.597.597 0 0 0 .8-.47c1.35-9.23-2.1-17.78-11.25-21.51a.71.71 0 0 0-.559.008.7.7 0 0 0-.381.402m-41.72 67.26c3.62 3.09 11.07 1.37 15.14-.51 15.66-7.21 29.67-20.88 36.63-36.71a.85.85 0 0 0 .003-.681.85.85 0 0 0-.503-.459q-7.49-2.53-12.66-6.93-5.16-4.4-8.83-11.4a.853.853 0 0 0-.536-.425.84.84 0 0 0-.674.115c-14.53 9.37-25.82 25.36-30.47 41.96-1.21 4.32-1.73 11.95 1.9 15.04m-119.49-1.66a.887.887 0 0 0-1.02-.18q-52.43 25.29-103.9 55.49-14.56 8.55-30.56 19.45a208 208 0 0 0-18.8 14.43q-4.569 3.93-7.02 8.52a2.04 2.04 0 0 0 .85 2.78c5.05 2.62 11.15 2.36 17.74 2.1q7.69-.3 20.49-2.37c32-5.19 64.87-16.31 93.68-33.27q13.16-7.76 22.97-17.79c13.58-13.91 20.91-33.17 5.57-49.16"/></svg>